#!OML:ASF F:\VICON\USERDATA\INSTALL\rory3\rory3.ASF
:FULLY-SPECIFIED
:DEGREES
148
root 0.5610675668195866 18.181898379725595 -12.80562352732959 8.616482735089106 -2.4775676430228852 -1.6167132134863251
lfemur -25.459175309250565 7.264588142991868 -19.087688226727273
ltibia 27.368770562174173
lfoot -6.052786222606577 3.9709749617987127
ltoes 1.6640757529638224
rfemur -22.668079112272856 -3.3215739802361504 19.403107404942954
rtibia 27.633591145139498
rfoot -11.187129564309561 -3.0886462635071825
rtoes 13.048613067962304
lowerback 4.287930573919592 0.15517462614386798 0.19086483190002546
upperback 5.585294216915462 0.22083237293813862 1.8396607772475577
thorax 2.5184099326402616 0.022388599867787906 1.3339994876458785
lowerneck -12.156430679402964 -0.5585791266396253 -2.109299081330364
upperneck 30.309405631001145 -1.0487986557541131 1.2252833743177554
head 11.575471561441166 -0.5235092829135027 0.38458868344144853
lclavicle -1.2880802981962916e-17 -8.172361753307432e-16
lhumerus -16.899267563209115 -17.869345371020717 91.33221915972243
lradius 29.670336093471086
lwrist 20.2631755347723
lhand -28.42743292682582 -4.649486591717841
lfingers 7.125019999999999
lthumb 0.8504364193169096 26.74743637345406
rclavicle -1.134826977788219e-17 -8.15566011507066e-16
rhumerus -20.14502118090895 -0.19748168367121766 -83.19368213506684
rradius 31.6724940379799
rwrist 27.855208662479885
rhand -17.711742600463435 -26.559706893753468
rfingers 7.125019999999999
rthumb 8.391520012057574 -56.34182426074545
149
root 0.6236139764936489 18.18317053421891 -13.019546105174042 8.93548677711364 -3.0659158400704367 -1.4358976118121136
lfemur -25.625860804338323 7.410762516070528 -19.401950002302314
ltibia 27.346020531349772
lfoot -5.9497769020739115 4.01785047695248
ltoes 1.4097859980115666
rfemur -23.649487824701588 -2.918075679469651 19.042446833234926
rtibia 28.34275934951843
rfoot -11.34152667292567 -2.9392575351913766
rtoes 13.162187631776472
lowerback 4.162271987297917 0.10442512088373637 -0.15598292554609955
upperback 5.333808183432323 0.13945146180967344 1.7142401780466954
thorax 2.4923235134091635 -0.029159012308530824 1.305468979550485
lowerneck -12.142624128333074 0.5133889058296273 -1.9750477447327655
upperneck 30.112704351118783 0.3001573949134537 0.9093783207026748
head 11.509049451891332 0.14418274113927393 0.35453504397515834
lclavicle -1.2507820511667395e-17 -8.167467380708199e-16
lhumerus -17.005358250697263 -18.114626437356097 91.21032453537688
lradius 29.867088017079535
lwrist 20.09193768716115
lhand -28.54239706931766 -4.600219908192628
lfingers 7.125019999999999
lthumb 1.0984662963591578 26.854048519674006
rclavicle -1.1522606512576234e-17 -8.157920212346309e-16
rhumerus -20.312797863450115 0.8045279473652558 -83.35297312948522
rradius 31.200960290111553
rwrist 28.2152425817554
rhand -17.90311789569511 -26.515079212234145
rfingers 7.125019999999999
rthumb 8.201593523228983 -56.3073691785876
150
root 0.667756315051454 18.18695217102737 -13.254983701657848 9.224568935089938 -3.195279738073058 -1.203077207513893
lfemur -25.958255301576592 7.475170079114412 -19.714089630727404
ltibia 27.779865145813964
lfoot -6.01472054584169 3.921488006257933
ltoes 1.1725302778447815
rfemur -24.378891599461628 -2.7220415172092176 18.632361733666126
rtibia 29.051834406549226
rfoot -11.742750221873997 -2.886326999195159
rtoes 12.926572637314159
lowerback 4.202125335384954 -0.03758981532710848 -0.540537401236043
upperback 5.170494431699876 -0.0704483647688865 1.612130749854469
thorax 2.467505111124689 -0.12700179551760002 1.3135995801173652
lowerneck -12.192445965912931 1.2960918202314686 -1.8804298925793488
upperneck 29.717135848584185 1.3101510113068568 0.6100266628435033
head 11.3843203197163 0.6628666094358766 0.32436300309117294
lclavicle -1.1619020411574014e-17 -8.156506351723693e-16
lhumerus -17.093512280928337 -18.070818568775326 90.98277275828403
lradius 29.76218745730494
lwrist 19.705070299819205
lhand -28.489639659609022 -4.539196747749803
lfingers 7.125019999999999
lthumb 1.3337662467706297 26.911736391832104
rclavicle -1.1180653325759843e-17 -8.15342503478577e-16
rhumerus -20.53825476934211 1.3154777537673237 -83.43859206043142
rradius 30.64691875800189
rwrist 28.630330031356948
rhand -18.00645173729798 -26.47293842671001
rfingers 7.125019999999999
rthumb 8.087990083578433 -56.30610139092878
151
root 0.6935562444442195 18.191385395107787 -13.489646508775285 9.183247358643204 -3.104088547871943 -1.1426153362888107
lfemur -26.309654125222227 7.455927768646166 -19.78252677301333
ltibia 28.691848297740886
lfoot -6.170293416398601 3.837285282538759
ltoes 0.9821957417986202
rfemur -24.51256715810808 -2.6730928435664065 18.46510691036982
rtibia 29.613100740390948
rfoot -12.189894832042887 -2.8970731781691677
rtoes 12.44559961482873
lowerback 4.442479984481821 -0.165673975375748 -0.6417620810922042
upperback 5.2543751204421385 -0.2525386198606566 1.5787250291318524
thorax 2.4750571158217345 -0.2103711022341028 1.3077425329559502
lowerneck -12.240850907857775 1.7391726328115784 -1.8781129079165566
upperneck 29.27757237444151 1.9461612783281692 0.3956389626796436
head 11.251283347220461 0.9465650358353236 0.2945970660718069
lclavicle -1.1045098472943054e-17 -8.149067270826329e-16
lhumerus -17.1223942547091 -17.555500986883693 90.64331015694943
lradius 29.439877771117594
lwrist 19.200960972461115
lhand -28.346081627477744 -4.452918336447699
lfingers 7.125019999999999
lthumb 1.3376693063614469 26.968826873613242
rclavicle -1.1153340582014292e-17 -8.153044631389113e-16
rhumerus -20.764535332649913 1.1925063073937743 -83.36435453443023
rradius 29.96770043621015
rwrist 29.09644305615963
rhand -18.048761680331317 -26.436408128798682
rfingers 7.125019999999999
rthumb 8.058715232237093 -56.26293524901896
152
root 0.71253908768711 18.202763726008172 -13.699139341057785 9.062605403660761 -3.008935129868398 -1.2856243018390519
lfemur -26.715139707632485 7.3937921873933945 -19.61572973863838
ltibia 29.836863602055388
lfoot -6.493409475772464 3.7659690538111215
ltoes 0.9901635923429675
rfemur -24.454434540910974 -2.678675645991141 18.611728710450198
rtibia 30.08716700037599
rfoot -12.534715293389846 -2.870522043004522
rtoes 12.041485657551533
lowerback 4.809098118742999 -0.2209855741647556 -0.480594525124941
upperback 5.471591448699846 -0.33682692051820107 1.6257098478208372
thorax 2.574336406792589 -0.24138914826383326 1.3024917995998675
lowerneck -12.278848650050618 1.9411072230854887 -1.8880285514534165
upperneck 28.881804290597973 2.260804309663325 0.33425790877814754
head 11.140953723480067 1.0973722764800677 0.2943373436706349
lclavicle -1.1633259178931114e-17 -8.156212960412571e-16
lhumerus -17.151213915578186 -16.947785007011042 90.3265439725321
lradius 29.123252440465052
lwrist 19.076620227107014
lhand -28.380640926350306 -4.441888799457767
lfingers 7.125019999999999
lthumb 0.9794041805678784 26.88700260146162
rclavicle -1.1354386315696216e-17 -8.155661936482767e-16
rhumerus -20.946405974948302 0.3930348925091378 -83.17018891060928
rradius 29.103302253790957
rwrist 29.797315283986766
rhand -17.999125944133286 -26.416549190297964
rfingers 7.125019999999999
rthumb 8.086253235916308 -56.22809764985786
